<?xml version="1.0" standalone="no"?>
<!DOCTYPE svg PUBLIC "-//W3C//DTD SVG 20010904//EN"
 "http://www.w3.org/TR/2001/REC-SVG-20010904/DTD/svg10.dtd">
<svg version="1.0" xmlns="http://www.w3.org/2000/svg"
 width="600.000000pt" height="516.000000pt" viewBox="0 0 600.000000 516.000000"
 preserveAspectRatio="xMidYMid meet">
<g transform="translate(0.000000,516.000000) scale(0.100000,-0.100000)"
fill="#000000" stroke="none">
<path d="M2810 4681 c-430 -94 -730 -464 -731 -902 0 -170 28 -286 104 -434
128 -247 359 -420 637 -477 132 -28 307 -21 435 17 269 79 500 285 601 535 51
125 67 206 67 350 1 202 -45 357 -154 519 -122 183 -300 313 -516 377 -121 36
-319 43 -443 15z m278 -15 c7 -4 19 -6 26 -3 7 3 32 1 57 -5 24 -5 53 -9 63
-9 24 0 58 -18 52 -27 -2 -4 3 -8 12 -9 50 -4 62 -8 57 -21 -3 -9 0 -10 12 -4
12 7 22 4 36 -12 10 -11 16 -15 12 -8 -3 6 -1 12 4 12 6 0 11 -4 11 -10 0 -5
7 -10 16 -10 8 0 12 -4 9 -10 -3 -5 0 -10 8 -10 8 0 26 -9 39 -20 14 -10 27
-17 30 -15 2 3 43 -34 91 -80 80 -78 87 -88 91 -130 3 -36 1 -43 -10 -34 -7 6
-10 18 -7 27 3 9 3 14 -1 10 -5 -4 -14 -1 -21 5 -10 9 -10 15 -1 26 8 11 8 13
0 8 -12 -7 -64 38 -64 56 0 6 -3 8 -6 4 -3 -3 -14 2 -24 11 -15 13 -17 19 -8
31 10 13 10 14 -1 4 -11 -9 -21 -7 -46 13 -17 13 -36 24 -41 24 -5 0 -22 11
-37 25 -15 14 -27 23 -27 20 0 -3 -13 1 -30 10 -16 9 -30 19 -30 24 0 5 -8 7
-18 4 -10 -2 -24 2 -31 11 -7 8 -20 12 -28 9 -12 -5 -14 -3 -8 7 5 8 4 11 -3
6 -6 -3 -23 -1 -39 5 -28 11 -102 23 -203 34 -57 6 -225 -16 -258 -34 -11 -6
-22 -8 -25 -5 -3 3 -29 -6 -59 -21 -44 -22 -49 -23 -28 -5 14 11 18 18 9 14
-10 -3 -20 -1 -23 5 -9 14 49 42 70 34 13 -5 15 -3 9 7 -6 10 -2 12 18 8 15
-3 24 -2 22 3 -3 4 28 13 67 19 40 7 78 13 83 15 23 6 161 -1 173 -9z m125
-85 c42 -11 117 -41 165 -66 202 -104 338 -262 415 -484 27 -76 31 -103 35
-227 4 -120 1 -152 -17 -225 -36 -143 -126 -303 -219 -392 l-30 -29 -105 60
c-57 33 -119 62 -138 64 -24 2 -36 10 -45 28 -6 14 -23 49 -37 78 l-25 53 34
57 c19 31 37 73 40 94 5 28 12 38 28 40 41 6 77 168 57 254 -7 27 -14 96 -16
154 -3 74 -11 127 -28 180 -21 67 -29 79 -73 113 -66 51 -108 72 -175 87 -71
16 -204 9 -244 -13 -39 -20 -26 -24 105 -30 133 -7 174 -20 229 -77 62 -65 76
-87 62 -104 -6 -7 -17 -34 -25 -60 -12 -41 -12 -48 0 -59 34 -28 44 -39 44
-47 0 -10 -47 5 -67 22 -19 15 -98 1 -119 -23 -13 -15 -18 -38 -19 -99 -2 -93
-17 -120 -69 -117 -17 1 -32 -2 -33 -8 -2 -5 6 -10 16 -10 11 0 28 -8 38 -17
33 -30 117 -50 135 -33 3 3 -4 30 -15 60 -24 67 -18 86 25 84 18 -1 45 2 60 6
41 11 47 -17 15 -63 -15 -20 -31 -52 -38 -70 -6 -17 -15 -32 -20 -32 -17 0 -9
-23 21 -57 17 -18 30 -40 30 -48 0 -23 -37 -18 -62 9 -28 30 -117 66 -161 66
-18 -1 -43 -7 -57 -14 -23 -13 -22 -14 35 -21 81 -9 94 -13 75 -25 -8 -6 -26
-10 -40 -10 -31 0 -72 -21 -78 -39 -4 -11 3 -13 32 -8 40 6 57 -10 70 -65 7
-30 30 -39 64 -24 31 13 42 -4 42 -72 0 -62 -17 -108 -53 -141 -27 -24 -27
-41 -1 -41 19 0 92 66 99 91 10 32 20 22 33 -36 12 -52 12 -56 -14 -94 l-26
-41 12 -96 c6 -52 10 -97 8 -99 -7 -7 -133 -25 -175 -25 -41 0 -41 0 -48 43
-15 104 -16 104 -82 105 -23 1 -72 31 -73 45 0 17 32 18 50 2 11 -10 20 -14
20 -8 0 19 -26 41 -57 48 -29 6 -34 3 -43 -19 -15 -42 -40 -26 -40 25 0 12 -7
19 -19 19 -25 0 -81 47 -81 67 0 8 6 13 13 10 46 -19 51 -17 22 7 -21 19 -25
26 -14 26 9 0 27 9 40 19 l24 19 -27 12 c-23 11 -31 9 -70 -18 -24 -17 -90
-51 -146 -76 l-103 -46 -24 27 c-13 16 -25 31 -25 36 0 14 24 7 47 -15 13 -12
26 -18 30 -13 5 4 2 10 -5 12 -6 3 -10 8 -7 13 2 4 -4 15 -14 24 -16 14 -23
15 -41 6 -12 -6 -23 -10 -25 -8 -15 16 -67 117 -89 172 -83 208 -72 466 30
670 118 236 334 399 599 452 92 18 257 11 358 -15z m-576 -22 c-7 -11 -18 -17
-25 -14 -7 3 -10 0 -7 -5 3 -6 1 -10 -5 -10 -7 0 -30 -14 -52 -32 -34 -26 -39
-28 -29 -10 6 12 9 22 5 22 -3 0 -1 7 6 15 6 8 8 19 4 26 -4 7 -2 10 7 7 7 -2
29 6 48 19 25 17 37 20 47 12 10 -8 11 -15 1 -30z m-114 -31 c-4 -7 -8 -15 -8
-18 -3 -23 -19 -50 -28 -50 -7 0 -18 -9 -25 -21 -9 -13 -19 -18 -30 -14 -9 3
-13 3 -9 -1 4 -4 -1 -13 -11 -21 -9 -8 -11 -11 -3 -7 10 5 12 3 7 -5 -5 -7
-15 -10 -23 -7 -8 3 -12 2 -9 -2 3 -5 -5 -19 -17 -33 -12 -14 -19 -20 -14 -13
4 6 0 17 -10 25 -13 9 -15 9 -7 0 14 -15 -14 -79 -43 -102 -15 -11 -15 -9 2
11 l20 25 -22 -18 c-12 -11 -19 -25 -16 -33 3 -8 -2 -17 -11 -20 -9 -3 -13
-10 -11 -15 3 -4 -6 -26 -20 -48 -14 -23 -25 -45 -25 -50 0 -5 -9 -30 -20 -55
-10 -25 -22 -67 -25 -92 -3 -26 -7 -50 -10 -54 -2 -4 -7 -47 -10 -96 -4 -49
-9 -93 -12 -98 -4 -5 0 -6 7 -1 10 6 11 2 6 -19 -3 -14 -2 -34 3 -44 5 -9 11
-35 13 -57 5 -49 29 -128 41 -136 5 -4 10 -18 10 -32 1 -14 6 -23 11 -19 5 3
7 -2 3 -11 -4 -10 -2 -16 6 -14 7 1 12 -8 11 -20 0 -13 2 -21 4 -18 9 8 32
-17 32 -34 0 -9 9 -22 20 -29 12 -7 18 -17 15 -22 -3 -6 -1 -10 5 -10 7 0 10
-7 7 -15 -4 -8 -1 -17 5 -21 7 -4 8 -3 4 4 -4 7 -3 12 2 12 12 0 33 -25 27
-32 -3 -3 3 -11 12 -19 16 -13 17 -12 5 3 -12 15 -10 18 15 25 15 4 34 6 42 4
7 -1 10 2 6 8 -3 6 -2 11 4 11 5 0 22 5 38 12 15 7 35 12 43 13 8 0 14 6 13
13 -2 7 0 11 5 10 4 -1 17 3 28 10 12 6 24 8 28 5 3 -4 13 2 21 13 14 18 14
17 4 -8 -9 -21 -9 -34 2 -60 8 -18 12 -37 11 -42 -2 -5 5 -3 14 5 12 9 15 9
10 2 -4 -7 -2 -13 3 -13 6 0 11 -4 11 -10 0 -5 -8 -7 -17 -4 -15 5 -15 4 -3
-4 10 -8 18 -8 28 0 16 14 32 0 35 -30 0 -12 3 -19 6 -17 2 3 10 0 18 -7 11
-9 10 -15 -8 -35 -13 -12 -19 -23 -16 -23 4 0 0 -11 -9 -25 -17 -26 -27 -78
-12 -69 5 3 14 1 21 -4 11 -9 59 -20 122 -28 11 -1 20 -3 20 -4 0 -4 122 -10
180 -8 33 1 76 2 97 2 20 1 34 4 32 7 -2 4 6 9 18 12 20 6 21 9 13 94 -11 134
-11 148 2 148 7 0 17 5 23 11 16 16 20 64 6 64 -6 0 -2 6 9 12 19 11 19 11 0
20 -20 8 -20 8 0 5 12 -2 19 -10 19 -20 -1 -9 2 -14 7 -11 5 2 23 -2 40 -11
17 -9 28 -12 25 -6 -4 6 -5 11 -2 11 11 0 101 -51 126 -72 14 -11 19 -16 11
-12 -9 5 -12 3 -7 -5 4 -6 11 -9 16 -6 5 3 25 -2 45 -12 29 -14 40 -15 55 -5
26 16 25 16 26 -15 1 -22 -9 -36 -47 -66 -28 -22 -54 -35 -60 -31 -7 4 -9 3
-5 -4 3 -6 2 -13 -4 -17 -5 -3 -10 0 -10 7 0 7 -7 2 -16 -10 -9 -14 -22 -21
-31 -18 -8 3 -11 2 -8 -4 3 -5 -9 -15 -27 -24 -90 -40 -136 -58 -192 -72 -69
-18 -300 -29 -276 -14 10 7 5 8 -19 3 -26 -5 -32 -3 -26 6 6 10 3 11 -13 2
-15 -8 -32 -7 -69 4 -26 8 -56 15 -66 15 -10 0 -25 7 -34 16 -9 8 -22 13 -29
10 -8 -3 -14 1 -14 8 0 8 -8 13 -17 12 -10 0 -17 4 -16 9 1 6 -10 11 -25 10
-16 0 -26 5 -25 12 2 7 -4 10 -12 7 -8 -4 -26 6 -41 23 -15 15 -20 19 -13 9
13 -18 12 -18 -8 -8 -12 7 -25 17 -29 24 -4 7 -3 8 4 4 25 -15 10 3 -15 20
-27 17 -28 17 -13 -2 8 -10 -2 -5 -22 11 -20 17 -35 36 -32 43 2 7 0 11 -5 8
-11 -7 -36 22 -28 31 8 8 -12 33 -26 33 -6 0 -2 -7 9 -15 10 -8 14 -15 8 -15
-18 0 -57 48 -49 61 5 7 4 10 -2 6 -11 -7 -32 15 -72 72 -13 19 -18 30 -11 26
9 -6 9 -3 1 14 -7 11 -14 21 -17 21 -3 0 -2 -5 2 -12 4 -7 3 -8 -4 -4 -9 5 -9
13 -2 26 8 16 6 22 -10 32 -11 7 -20 20 -20 30 0 9 -4 20 -10 23 -5 3 -10 17
-10 31 0 13 -5 24 -11 24 -5 0 -8 3 -5 8 2 4 -4 43 -15 87 -13 58 -18 109 -16
192 1 62 5 113 10 113 4 0 7 16 7 35 0 21 5 35 13 35 9 0 9 2 -1 9 -11 7 -11
11 1 22 7 8 12 20 9 27 -2 7 0 18 6 25 5 7 12 26 16 42 4 17 14 37 22 46 8 9
14 21 12 27 -2 5 8 25 22 43 13 19 25 40 26 46 4 23 39 60 53 55 8 -3 11 0 8
5 -9 14 23 55 38 50 8 -4 11 3 9 19 -1 13 2 22 7 18 5 -3 9 0 9 6 0 7 9 9 23
5 14 -4 17 -3 10 2 -15 11 30 58 87 92 41 24 44 25 33 9z m618 -153 c5 4 17 1
26 -5 17 -11 17 -11 0 -6 -11 4 -16 2 -11 -5 3 -6 15 -9 25 -6 11 3 17 1 14
-3 -3 -5 0 -10 7 -12 7 -3 8 -9 3 -18 -7 -11 -10 -10 -19 2 -6 8 -25 23 -43
33 -18 10 -29 23 -26 29 4 6 8 6 11 -2 2 -7 8 -10 13 -7z m89 -60 c-11 -13
-10 -14 4 -9 9 3 16 1 16 -5 0 -6 6 -10 13 -8 6 1 11 -6 11 -15 -1 -10 2 -16
6 -13 10 6 22 -24 14 -36 -3 -5 2 -19 10 -31 9 -12 16 -27 16 -33 0 -5 -5 -3
-10 5 -5 8 -10 10 -10 4 0 -6 6 -17 14 -23 10 -8 14 -33 14 -79 0 -64 19 -229
28 -244 7 -12 -16 -102 -29 -110 -9 -6 -9 -8 0 -8 20 0 2 -41 -24 -53 -13 -6
-26 -21 -29 -34 -4 -13 -11 -23 -16 -23 -6 0 -7 -7 -4 -15 4 -10 -2 -19 -17
-24 -12 -5 -24 -7 -27 -6 -3 2 -6 -5 -6 -16 0 -19 1 -19 13 -3 14 20 30 13 17
-8 -5 -7 -9 -18 -10 -25 -1 -7 -12 -26 -23 -42 -22 -30 -27 -46 -13 -37 11 6
44 -61 46 -91 1 -13 0 -23 -1 -23 -4 0 -26 51 -27 63 -1 4 -4 6 -7 5 -3 -2
-14 4 -25 12 -17 14 -18 13 -7 -1 7 -9 9 -20 5 -25 -4 -4 1 -2 11 5 25 20 21
8 -7 -16 l-23 -20 1 68 c0 37 4 63 8 56 4 -7 8 -7 8 -2 0 6 -12 23 -26 38 -21
23 -31 27 -55 22 -24 -5 -31 -3 -39 17 -5 13 -17 33 -25 44 -15 21 -14 23 15
44 18 13 27 26 23 33 -5 8 -2 8 9 0 8 -7 17 -11 20 -8 3 3 22 -10 43 -30 43
-39 56 -42 75 -20 7 8 17 12 22 9 6 -4 5 3 -1 15 -10 18 -9 20 6 14 10 -3 2
11 -19 33 -37 39 -48 64 -28 64 6 0 9 3 8 8 -3 11 32 80 48 93 10 8 14 8 14 0
0 -6 -6 -11 -12 -12 -10 0 -10 -2 -1 -6 24 -9 26 -8 28 14 1 12 -2 20 -7 16
-6 -3 -7 9 -5 26 3 17 2 29 -3 26 -4 -3 -13 2 -20 11 -7 8 -20 12 -29 9 -9 -3
-5 4 9 16 22 18 22 19 3 10 -12 -6 -24 -15 -27 -20 -3 -5 -24 -9 -47 -9 -22
-1 -46 -6 -54 -12 -10 -8 -15 -4 -22 17 -12 41 0 109 18 97 5 -3 9 -1 9 3 0 5
8 9 18 10 9 1 22 2 27 4 17 4 65 -13 60 -21 -2 -4 7 -7 21 -7 14 0 28 6 31 13
3 8 8 12 12 10 4 -3 7 4 7 14 0 10 -3 17 -6 16 -3 -2 -16 8 -30 22 -14 13 -19
22 -12 18 6 -4 12 -2 12 3 0 6 -5 11 -12 11 -6 0 -8 3 -5 6 4 4 14 1 22 -6 11
-9 19 -10 26 -3 8 8 7 13 -2 18 -8 5 -10 4 -5 -3 4 -7 2 -12 -3 -12 -6 0 -11
7 -11 16 0 8 -5 12 -10 9 -12 -7 9 45 23 60 7 6 7 5 2 -5 -5 -8 -4 -11 0 -7
12 10 16 39 5 32 -12 -8 -33 33 -24 47 4 7 3 8 -4 4 -14 -8 -36 30 -28 50 3 8
11 14 17 14 8 0 8 -4 -1 -15z m530 -62 c0 -8 -4 -12 -9 -8 -5 3 -12 1 -15 -4
-7 -10 13 -9 31 2 8 5 9 0 5 -15 -3 -13 -1 -19 5 -15 16 10 57 -73 44 -86 -6
-6 -11 -18 -10 -26 0 -11 3 -10 8 4 7 18 10 15 29 -21 16 -32 18 -44 9 -54 -9
-10 -9 -11 2 -5 11 6 13 2 9 -18 -3 -15 -1 -24 3 -21 15 9 24 -72 24 -227 -1
-109 -5 -161 -13 -172 -7 -8 -9 -23 -5 -32 4 -12 3 -16 -4 -12 -6 4 -12 -8
-15 -31 -3 -20 -14 -55 -23 -77 -10 -22 -17 -46 -16 -54 1 -7 -2 -10 -8 -6 -6
3 -11 -2 -11 -12 0 -10 -10 -29 -23 -43 -13 -14 -21 -32 -19 -40 4 -13 3 -13
-10 -2 -13 10 -18 10 -24 1 -4 -7 -3 -9 4 -5 6 4 10 -1 9 -13 -1 -15 -5 -17
-13 -10 -9 8 -11 5 -7 -10 3 -13 1 -21 -8 -21 -7 0 -9 3 -6 7 4 3 1 14 -7 22
-11 12 -12 21 -5 31 9 12 10 12 5 -3 -3 -11 -2 -16 4 -12 6 3 10 11 10 17 0 6
8 17 18 25 9 8 10 11 2 7 -11 -6 -11 -2 3 16 10 14 29 50 43 80 14 30 31 69
39 85 8 17 17 49 20 72 4 24 10 45 14 47 4 3 8 56 9 118 3 116 -12 226 -45
323 -9 27 -15 51 -14 53 1 1 -5 10 -14 18 -8 9 -15 21 -15 28 0 7 -10 26 -21
41 -22 26 -33 71 -22 88 7 11 33 -12 33 -30z m-675 -413 c11 -17 -16 -43 -29
-29 -8 8 -8 13 2 16 6 3 10 9 6 14 -3 5 -1 9 5 9 5 0 13 -5 16 -10z m-30 -40
c5 -8 11 -8 20 0 9 8 15 8 20 0 10 -16 -44 -33 -61 -19 -8 6 -11 15 -8 20 7
12 21 11 29 -1z m55 -24 c0 -3 -4 -8 -10 -11 -5 -3 -10 -1 -10 4 0 6 5 11 10
11 6 0 10 -2 10 -4z m-915 -386 c3 -5 1 -10 -4 -10 -6 0 -11 5 -11 10 0 6 2
10 4 10 3 0 8 -4 11 -10z m1493 -153 c-1 -2 3 -11 9 -19 11 -12 9 -18 -6 -32
-17 -15 -20 -16 -34 -1 -15 14 -14 18 5 40 12 14 23 23 26 21 2 -2 2 -6 0 -9z
m-448 -11 c0 -2 -8 -10 -17 -17 -16 -13 -17 -12 -4 4 13 16 21 21 21 13z m411
-52 c11 -13 10 -17 -4 -26 -10 -5 -15 -13 -13 -17 3 -4 -1 -8 -8 -8 -8 0 -13
7 -11 16 1 9 -2 22 -8 29 -7 9 -5 11 8 6 13 -5 16 -4 11 4 -11 18 10 14 25 -4z
m-850 -72 c-21 -7 -11 -20 12 -16 12 2 16 2 9 -2 -6 -3 -10 -9 -8 -12 2 -4
-16 -7 -40 -7 -41 -1 -42 0 -27 17 8 10 20 15 24 12 9 -5 13 11 10 30 -1 5 5
3 15 -4 10 -9 12 -16 5 -18z m59 -52 c-10 -19 -40 -28 -40 -12 0 13 23 32 37
32 11 0 11 -5 3 -20z m62 6 c7 5 8 2 3 -6 -4 -7 -2 -16 5 -20 9 -5 9 -9 1 -14
-6 -4 -11 -2 -11 4 0 8 -6 8 -20 0 -14 -7 -20 -7 -20 0 0 16 25 51 28 40 2 -6
9 -7 14 -4z m-124 -28 c7 -7 12 -9 12 -5 0 4 9 3 20 -3 25 -13 28 -60 4 -60
-9 0 -41 7 -71 16 l-55 16 23 24 c25 26 48 31 67 12z m136 -47 c22 -24 3 -39
-42 -32 -32 6 -32 7 -17 29 20 27 36 28 59 3z"/>
<path d="M3517 4483 c-3 -5 4 -15 16 -23 21 -12 21 -12 7 6 -8 10 -15 20 -16
22 -1 2 -4 -1 -7 -5z"/>
<path d="M3540 4486 c0 -2 8 -10 18 -17 15 -13 16 -12 3 4 -13 16 -21 21 -21
13z"/>
<path d="M3310 4326 c0 -2 8 -10 18 -17 15 -13 16 -12 3 4 -13 16 -21 21 -21
13z"/>
<path d="M2835 4109 c-4 -6 -5 -12 -2 -15 2 -3 7 2 10 11 7 17 1 20 -8 4z"/>
<path d="M2840 4052 c0 -5 8 -13 18 -17 13 -5 6 -11 -30 -27 -56 -24 -64 -48
-15 -48 17 1 46 0 64 0 47 -2 93 25 93 55 0 13 -5 27 -10 30 -20 12 -120 18
-120 7z m87 -27 c22 0 17 -20 -9 -34 -14 -8 -33 -11 -44 -7 -18 7 -18 8 -1 20
9 7 17 19 17 25 0 7 5 9 13 4 6 -4 18 -8 24 -8z"/>
<path d="M2890 4000 c-9 -6 -10 -10 -3 -10 6 0 15 5 18 10 8 12 4 12 -15 0z"/>
<path d="M2715 3640 c19 -55 24 -62 68 -100 l39 -33 -7 39 c-12 70 -14 74 -47
74 -24 0 -32 6 -41 30 -17 45 -28 36 -12 -10z m66 -57 c13 -16 12 -17 -3 -4
-17 13 -22 21 -14 21 2 0 10 -8 17 -17z"/>
<path d="M2849 3651 c-13 -11 -22 -22 -19 -25 8 -7 53 17 58 32 6 18 -12 15
-39 -7z"/>
<path d="M2562 3393 c-10 -4 -10 -8 -1 -20 10 -12 10 -16 -2 -24 -19 -12 -25
-11 -39 6 -11 13 -16 13 -44 -2 -41 -21 -41 -20 -26 -38 13 -16 60 -21 60 -7
0 5 -10 14 -22 20 -32 15 2 16 36 1 21 -10 32 -8 70 15 46 27 63 53 27 41 -11
-3 -22 -1 -26 5 -7 11 -13 11 -33 3z"/>
<path d="M2405 3371 c-3 -5 -2 -12 3 -15 5 -3 9 1 9 9 0 17 -3 19 -12 6z"/>
<path d="M2724 3315 c4 -11 10 -37 13 -57 4 -24 11 -38 20 -38 11 0 14 7 9 28
-5 23 -4 25 6 12 24 -28 93 -75 106 -72 7 2 21 -17 31 -41 28 -65 41 -68 41
-10 0 31 -3 43 -9 34 -7 -11 -11 -9 -20 8 -7 11 -33 32 -59 45 -26 13 -69 44
-96 67 -33 29 -47 37 -42 24z"/>
<path d="M2837 3299 c7 -7 15 -10 18 -7 3 3 -2 9 -12 12 -14 6 -15 5 -6 -5z"/>
<path d="M2269 4293 c-13 -16 -12 -17 4 -4 9 7 17 15 17 17 0 8 -8 3 -21 -13z"/>
<path d="M2586 3281 c-3 -5 1 -11 9 -14 9 -4 12 -1 8 9 -6 16 -10 17 -17 5z"/>
<path d="M3234 3178 c-4 -7 -4 -10 1 -6 4 4 15 2 24 -5 14 -11 14 -10 2 6 -16
20 -18 21 -27 5z"/>
<path d="M2665 2980 c3 -5 8 -10 11 -10 2 0 4 5 4 10 0 6 -5 10 -11 10 -5 0
-7 -4 -4 -10z"/>
<path d="M3103 3965 c0 -8 4 -12 9 -9 5 3 6 10 3 15 -9 13 -12 11 -12 -6z"/>
<path d="M3123 3605 c0 -8 4 -12 9 -9 5 3 6 10 3 15 -9 13 -12 11 -12 -6z"/>
<path d="M3080 3540 c8 -5 20 -10 25 -10 6 0 3 5 -5 10 -8 5 -19 10 -25 10 -5
0 -3 -5 5 -10z"/>
<path d="M2326 4488 c3 -5 10 -6 15 -3 13 9 11 12 -6 12 -8 0 -12 -4 -9 -9z"/>
<path d="M1713 2358 c4 -265 7 -589 7 -720 l0 -238 138 0 137 0 -3 720 -2 720
-142 0 -141 0 6 -482z m250 333 c3 -74 1 -109 -5 -100 -6 9 -7 -10 -3 -56 11
-118 15 -409 5 -415 -5 -3 -5 -22 0 -45 12 -52 12 -643 0 -647 -5 -2 -54 -2
-109 0 l-99 3 -5 32 c-3 18 -6 268 -6 557 -1 289 -4 555 -7 593 -4 37 -3 67 2
67 5 0 8 27 7 60 -2 56 -1 60 23 66 14 4 53 4 87 0 34 -3 69 -1 77 4 8 5 18 6
21 2 4 -4 9 -58 12 -121z"/>
<path d="M1280 2285 c0 -282 -4 -463 -11 -495 -26 -122 -123 -200 -248 -200
-89 0 -135 14 -182 57 -51 46 -76 94 -89 174 -5 37 -10 242 -10 482 l0 417
-147 0 -148 0 6 -482 c4 -356 9 -494 18 -523 73 -225 253 -339 536 -339 198 0
315 42 426 153 36 36 76 87 88 114 49 102 51 121 51 620 l0 467 -145 0 -145 0
0 -445z m-572 401 c2 -3 6 -189 7 -413 2 -394 13 -563 36 -563 5 0 9 -7 9 -16
0 -10 5 -12 13 -7 6 4 3 -6 -7 -22 -15 -23 -16 -27 -3 -17 13 12 19 11 37 -1
11 -7 17 -17 13 -20 -3 -4 1 -7 10 -7 9 0 17 -4 17 -9 0 -12 60 -35 83 -33 10
1 16 -2 13 -7 -3 -4 30 -8 74 -7 44 0 80 4 80 8 0 4 11 3 24 -2 19 -7 23 -5
22 8 -1 11 6 17 19 17 11 0 33 15 49 32 16 19 33 30 40 26 17 -11 37 -12 30
-2 -3 5 -9 7 -14 4 -4 -3 -11 2 -14 10 -4 11 0 15 11 13 12 -2 17 5 19 27 1
17 9 57 18 90 13 50 15 129 13 480 l-2 420 120 2 120 1 3 -410 c3 -341 2 -409
-10 -402 -11 6 -11 5 0 -9 10 -12 12 -28 6 -59 -5 -24 -8 -50 -7 -58 2 -20
-47 -130 -58 -130 -5 0 -9 -9 -9 -20 0 -11 -4 -20 -10 -20 -5 0 -16 -12 -24
-27 -8 -16 -15 -22 -16 -15 0 6 -4 12 -9 12 -5 0 -7 -10 -4 -22 4 -19 3 -20
-6 -8 -9 13 -11 13 -11 -2 0 -17 -80 -68 -107 -68 -8 0 -11 -5 -7 -11 4 -8 -1
-9 -16 -4 -17 5 -20 4 -15 -5 6 -10 1 -12 -19 -8 -15 3 -24 3 -21 -1 11 -10
-116 -30 -195 -30 -112 -1 -246 22 -235 40 4 5 1 9 -4 9 -6 0 -11 -5 -11 -10
0 -6 -6 -5 -14 2 -8 7 -12 16 -10 20 2 3 -6 4 -18 0 -16 -4 -19 -2 -13 8 5 8
4 11 -3 7 -16 -10 -73 26 -67 42 4 9 0 11 -11 7 -12 -4 -15 -2 -11 9 4 8 1 17
-5 21 -6 4 -8 3 -4 -4 3 -6 2 -13 -4 -17 -5 -3 -10 -2 -10 4 0 5 -12 23 -26
40 -14 17 -23 35 -20 40 4 5 -2 14 -11 20 -10 6 -15 11 -10 11 4 0 0 11 -9 25
-8 13 -12 30 -8 36 4 7 3 9 -3 6 -19 -12 -24 81 -29 534 l-6 446 117 -3 c65
-2 120 -6 123 -8z m559 -991 c0 -8 -4 -12 -9 -9 -5 3 -6 10 -3 15 9 13 12 11
12 -6z"/>
<path d="M1445 1631 c-3 -5 -2 -12 3 -15 5 -3 9 1 9 9 0 17 -3 19 -12 6z"/>
<path d="M800 1586 c0 -3 9 -10 20 -16 15 -8 25 -8 38 0 16 11 16 11 -1 6 -10
-3 -27 -1 -38 4 -10 6 -19 8 -19 6z"/>
<path d="M1150 1575 c9 -11 17 -12 31 -4 10 5 19 12 19 15 0 2 -9 0 -20 -6
-14 -7 -20 -7 -20 0 0 5 -5 10 -11 10 -8 0 -8 -4 1 -15z"/>
<path d="M4406 2413 c-6 -14 -5 -15 5 -6 7 7 10 15 7 18 -3 3 -9 -2 -12 -12z"/>
<path d="M2485 2409 c-249 -33 -415 -238 -415 -514 0 -157 42 -281 127 -375
76 -84 155 -122 299 -141 98 -13 281 1 391 30 56 14 68 21 66 37 -1 10 -3 52
-4 92 -2 63 -4 73 -18 68 -9 -3 -42 -14 -73 -25 -78 -28 -209 -42 -278 -29
-130 24 -216 109 -236 233 l-6 41 334 3 c183 1 335 5 337 7 8 7 -19 229 -33
275 -67 220 -249 330 -491 298z m170 -29 c0 -2 9 -4 20 -6 54 -8 81 -17 96
-30 8 -8 20 -14 24 -14 14 0 105 -93 105 -107 0 -7 5 -13 11 -13 5 0 8 -4 5
-8 -3 -5 2 -21 9 -36 8 -16 12 -33 8 -39 -3 -5 -1 -7 4 -4 10 6 21 -19 29 -68
15 -95 16 -100 4 -85 -10 12 -11 12 -4 -5 4 -11 8 -40 8 -65 l1 -45 -294 -2
c-162 -1 -300 -4 -308 -7 -7 -3 -13 0 -13 6 0 6 -10 3 -21 -8 -19 -17 -20 -26
-15 -76 4 -39 12 -64 26 -78 12 -12 20 -26 17 -33 -4 -12 94 -97 111 -97 6 0
12 -5 14 -11 2 -6 15 -13 28 -14 14 -2 39 -6 55 -9 30 -5 103 -8 140 -5 17 1
113 25 188 46 10 3 18 0 18 -8 9 -97 7 -107 -21 -119 -15 -6 -38 -13 -51 -15
-13 -2 -40 -7 -59 -11 -49 -10 -295 -11 -353 -1 -28 5 -45 12 -41 19 4 6 -2 6
-15 -1 -17 -9 -21 -9 -19 1 2 7 -6 13 -17 13 -28 1 -47 14 -39 27 5 8 1 9 -10
5 -30 -12 -155 133 -147 172 1 7 -2 10 -7 7 -6 -3 -12 1 -16 9 -3 8 0 15 6 15
6 0 6 6 -3 16 -19 23 -21 35 -25 179 -3 87 0 141 8 165 13 35 15 43 17 70 1
13 2 13 12 0 9 -12 10 -11 6 6 -7 35 52 122 75 108 8 -5 8 -1 -2 11 -12 14
-12 19 -2 23 7 2 25 15 41 28 16 13 31 21 35 17 3 -3 6 -2 6 4 0 16 100 65
121 60 11 -3 17 -1 14 4 -4 5 8 7 24 5 17 -2 29 0 27 3 -3 4 35 6 82 5 48 -1
87 -3 87 -4z"/>
<path d="M2804 2306 c1 -8 5 -18 8 -22 4 -3 5 1 4 10 -1 8 -5 18 -8 22 -4 3
-5 -1 -4 -10z"/>
<path d="M2515 2267 c-22 -4 -48 -9 -57 -10 -9 -1 -14 -6 -11 -11 4 -5 -1 -7
-10 -3 -10 4 -16 2 -14 -6 1 -7 -5 -10 -13 -9 -8 2 -12 0 -8 -4 12 -12 -12
-33 -30 -27 -14 4 -15 3 -2 -6 8 -5 11 -13 7 -17 -3 -4 -15 -1 -24 7 -16 13
-17 12 -5 -3 11 -14 11 -24 2 -53 -6 -19 -15 -35 -18 -35 -13 0 -13 -111 -1
-126 17 -21 421 -21 439 1 7 8 9 22 6 31 -4 9 -1 23 5 30 8 10 8 14 1 14 -6 0
-14 27 -18 60 -3 33 -10 57 -14 55 -4 -3 -11 6 -14 20 -4 14 -13 25 -21 25 -7
0 -17 4 -20 10 -3 5 0 8 7 7 7 -2 9 -2 5 1 -4 2 -2 11 5 20 10 14 10 15 -2 5
-19 -18 -33 -16 -26 3 3 9 2 12 -5 9 -13 -9 -61 3 -55 13 6 10 -57 9 -109 -1z
m123 -36 c63 -32 103 -109 115 -218 l5 -43 -209 0 -209 0 0 25 c0 13 10 54 21
90 24 70 70 128 123 151 44 19 111 17 154 -5z"/>
<path d="M2961 1914 c0 -11 3 -14 6 -6 3 7 2 16 -1 19 -3 4 -6 -2 -5 -13z"/>
<path d="M2420 1570 c-9 -6 -10 -10 -3 -10 6 0 15 5 18 10 8 12 4 12 -15 0z"/>
<path d="M2911 1524 c0 -11 3 -14 6 -6 3 7 2 16 -1 19 -3 4 -6 -2 -5 -13z"/>
<path d="M2865 1470 c-18 -8 -18 -9 -2 -9 12 -1 16 -6 11 -13 -4 -7 -3 -9 1
-5 7 6 17 39 12 36 -1 0 -11 -4 -22 -9z"/>
<path d="M3355 2409 c-92 -12 -241 -53 -238 -66 1 -5 3 -46 4 -91 1 -45 4 -82
6 -82 2 0 21 9 41 19 89 45 248 70 335 52 103 -22 153 -76 158 -173 l3 -48
-135 -4 c-157 -6 -245 -23 -335 -67 -72 -36 -126 -89 -158 -158 -30 -66 -30
-199 1 -256 46 -85 127 -138 241 -155 143 -23 271 26 365 138 l27 34 0 -76 0
-76 133 0 133 0 -3 243 c-6 453 -8 487 -32 548 -41 107 -127 178 -251 207 -68
16 -216 22 -295 11z m280 -32 c38 -5 100 -31 109 -46 4 -6 12 -8 18 -5 7 5 9
1 5 -9 -4 -11 -2 -14 7 -11 8 3 17 0 22 -7 4 -7 3 -10 -4 -5 -6 3 -13 2 -17
-3 -3 -6 4 -8 16 -6 26 5 51 -22 81 -85 23 -48 23 -42 31 -593 l2 -177 -102 0
-103 0 0 49 c0 38 -6 56 -24 78 -23 27 -25 27 -32 8 -18 -45 -134 -143 -155
-130 -5 4 -9 2 -9 -4 0 -5 -26 -15 -57 -22 -60 -12 -150 -7 -216 11 -37 11
-38 12 -22 30 12 14 13 20 4 26 -7 4 -10 3 -5 -4 3 -6 -2 -15 -11 -21 -27 -14
-56 12 -56 50 0 23 -3 27 -9 15 -5 -9 -6 -21 -2 -28 4 -7 3 -8 -4 -4 -7 4 -17
16 -23 28 -8 16 -8 19 1 13 9 -6 9 -2 1 14 -7 11 -14 21 -17 21 -3 0 -2 -4 1
-10 3 -5 4 -10 0 -10 -24 0 -36 170 -15 224 13 34 60 93 60 75 0 -7 3 -9 6 -6
4 4 1 14 -7 24 -8 9 -9 14 -3 10 7 -4 15 0 18 9 3 9 15 14 28 12 14 -2 22 2
20 10 -3 16 56 52 74 45 8 -3 14 -1 14 4 0 5 6 10 13 11 14 1 53 8 86 16 14 3
47 8 75 11 28 3 58 8 67 11 9 2 34 1 55 -4 22 -5 52 -5 67 -1 24 7 28 5 22 -9
-3 -9 6 -3 21 13 23 27 25 36 21 83 -3 29 -12 61 -19 70 -7 9 -8 13 -3 10 6
-4 11 2 11 12 0 14 -3 16 -13 8 -9 -7 -13 -7 -13 0 0 6 -13 23 -29 38 -17 15
-27 32 -24 37 3 5 -3 4 -14 -2 -16 -8 -25 -6 -41 9 -22 21 -37 27 -28 11 4 -5
-9 -5 -30 -1 -20 5 -58 5 -85 1 -26 -4 -46 -4 -43 1 3 4 0 8 -5 8 -6 0 -11 -4
-11 -9 0 -5 -13 -8 -30 -7 -16 1 -30 -1 -30 -6 0 -4 -7 -5 -15 -2 -8 4 -15 1
-15 -5 0 -6 -7 -8 -15 -5 -8 4 -15 1 -15 -5 0 -6 -9 -11 -19 -11 -11 0 -23 -5
-26 -10 -9 -14 -24 -3 -24 18 0 9 -2 36 -4 59 -2 23 0 40 4 37 5 -3 15 -2 22
3 6 4 17 8 22 10 6 1 35 8 65 16 30 9 69 18 85 20 31 5 236 1 290 -6z"/>
<path d="M3215 1920 c-3 -5 -1 -10 4 -10 6 0 11 5 11 10 0 6 -2 10 -4 10 -3 0
-8 -4 -11 -10z"/>
<path d="M3452 1885 c-24 -8 -51 -11 -60 -8 -10 4 -14 2 -9 -3 5 -5 -12 -19
-40 -32 -26 -12 -39 -20 -28 -17 20 5 20 5 1 -10 -11 -8 -23 -15 -26 -15 -11
0 -33 -53 -40 -99 -8 -50 1 -74 48 -125 33 -36 91 -61 123 -53 12 3 17 1 12
-6 -4 -7 0 -8 13 -2 10 4 33 9 49 11 41 4 125 52 125 71 0 12 3 13 13 4 19
-15 27 -4 20 30 -6 31 12 42 20 12 2 -10 4 0 4 22 0 22 4 74 8 116 11 113 6
119 -103 118 -48 -1 -106 -7 -130 -14z m213 -84 c-9 -97 -30 -152 -73 -194
-47 -45 -78 -57 -154 -57 -68 0 -119 20 -142 55 -22 33 -28 94 -13 135 15 42
82 95 140 111 43 12 225 28 241 21 4 -3 5 -34 1 -71z"/>
<path d="M3215 1719 c-4 -6 -5 -12 -2 -15 2 -3 7 2 10 11 7 17 1 20 -8 4z"/>
<path d="M3473 1465 c0 -7 6 -11 14 -8 7 3 13 6 13 8 0 2 -6 5 -13 8 -8 3 -14
-1 -14 -8z"/>
<path d="M3525 1470 c-3 -6 1 -7 9 -4 18 7 21 14 7 14 -6 0 -13 -4 -16 -10z"/>
<path d="M5179 2410 c-78 -13 -145 -48 -199 -105 -27 -30 -50 -61 -50 -69 0
-28 -16 -17 -28 18 -19 52 -104 123 -170 142 -81 24 -201 15 -268 -19 -72 -36
-106 -68 -137 -125 l-27 -49 29 3 c28 3 29 2 17 -20 -6 -13 -11 -40 -11 -59 1
-20 -2 -34 -5 -32 -14 9 -20 -79 -26 -353 -2 -152 -5 -285 -4 -294 0 -16 -12
-18 -105 -18 -93 0 -105 2 -105 18 1 68 -12 845 -15 875 -3 35 -2 37 28 38
169 4 159 5 168 -19 5 -13 9 -46 9 -73 0 -50 15 -67 25 -26 3 12 4 50 3 84
l-3 63 -130 0 -130 0 6 -97 c4 -54 7 -277 8 -495 l1 -398 138 0 137 0 -3 296
c-2 243 0 306 13 357 28 109 82 157 178 157 61 0 96 -20 125 -73 15 -28 17
-73 20 -384 l3 -353 137 0 137 0 0 328 c0 311 1 329 21 372 41 88 107 128 190
115 56 -8 97 -48 113 -109 7 -29 11 -162 11 -375 l0 -331 142 0 141 0 -7 375
c-6 338 -8 381 -27 441 -44 142 -186 220 -350 194z m-426 -49 c35 -14 57 -30
58 -40 0 -11 2 -12 6 -3 5 13 10 8 55 -62 26 -39 47 -58 58 -51 6 4 22 24 36
46 13 22 29 37 34 34 9 -6 14 8 11 27 0 4 7 4 16 1 10 -4 14 -2 10 4 -6 10 60
49 77 44 5 -1 13 4 17 11 6 9 33 13 86 12 100 0 140 -7 164 -27 10 -9 19 -14
19 -11 0 3 5 2 11 -2 8 -4 7 -9 -2 -16 -10 -7 -9 -8 5 -4 24 8 66 -36 66 -68
0 -17 2 -18 10 -6 5 8 10 11 10 5 0 -5 -5 -17 -10 -25 -6 -10 -3 -20 9 -32 16
-14 20 -40 26 -145 4 -70 5 -175 2 -233 -3 -58 -2 -94 2 -80 4 14 7 -40 7
-120 -1 -84 -5 -148 -11 -152 -6 -5 -5 -11 3 -16 10 -7 10 -11 -2 -21 -9 -8
-44 -12 -98 -10 -107 3 -118 6 -118 36 0 13 4 21 10 18 6 -4 6 3 0 21 -6 15
-10 59 -10 98 0 39 -2 102 -4 141 -3 48 -2 65 5 55 8 -12 9 -10 4 7 -3 12 -7
84 -8 160 -3 119 -6 146 -25 183 -11 24 -18 48 -15 53 3 6 1 7 -4 4 -6 -4 -18
2 -27 12 -17 19 -91 36 -136 32 -37 -4 -110 -42 -103 -54 4 -6 0 -8 -10 -4
-12 4 -14 2 -10 -10 4 -11 2 -14 -5 -9 -7 4 -12 2 -12 -6 0 -7 -7 -26 -15 -42
-22 -42 -32 -215 -28 -468 l3 -218 -110 0 -110 0 -1 38 c0 20 -1 177 -2 349
-1 171 -5 309 -9 307 -6 -4 -21 16 -30 41 -1 6 -6 9 -10 8 -4 -2 -5 3 -2 11 3
8 0 17 -7 22 -8 5 -10 3 -5 -7 4 -8 1 -6 -7 4 -8 9 -23 17 -33 17 -16 0 -17 2
-4 10 11 7 -8 10 -62 9 -43 -1 -78 -6 -78 -10 0 -5 -7 -5 -17 -2 -11 4 -14 3
-9 -5 4 -7 3 -12 -2 -12 -15 0 -71 -58 -64 -66 4 -4 2 -4 -5 0 -14 8 -7 32 16
61 9 11 12 17 7 13 -5 -4 -15 -3 -23 3 -10 9 -13 8 -13 -1 0 -8 -3 -10 -7 -7
-4 4 7 22 25 40 17 17 31 37 32 42 0 6 5 11 10 11 6 1 15 2 20 3 6 0 10 6 10
12 0 5 -4 7 -10 4 -16 -10 -11 1 7 16 9 8 14 10 11 4 -3 -5 2 -18 11 -27 16
-16 17 -16 17 2 0 10 -4 16 -8 14 -4 -3 -8 -1 -8 5 0 10 32 21 108 38 62 15
135 9 195 -16z"/>
<path d="M5260 2376 c0 -2 7 -7 16 -10 8 -3 12 -2 9 4 -6 10 -25 14 -25 6z"/>
<path d="M4396 2288 c3 -4 11 -5 19 -1 21 7 19 12 -4 10 -11 0 -18 -5 -15 -9z"/>
<path d="M5437 2288 c7 -8 11 -17 8 -20 -3 -2 2 -5 10 -5 21 0 19 10 -7 26
-20 13 -22 12 -11 -1z"/>
<path d="M4682 2171 c38 -44 42 -47 25 -19 -20 32 -21 42 -4 32 6 -4 9 -3 4 1
-4 5 -16 9 -27 10 -20 2 -20 1 2 -24z"/>
<path d="M5522 1615 c0 -16 2 -22 5 -12 2 9 2 23 0 30 -3 6 -5 -1 -5 -18z"/>
<path d="M2171 2343 c7 -12 15 -20 18 -17 3 2 -3 12 -13 22 -17 16 -18 16 -5
-5z"/>
<path d="M764 1302 c4 -3 14 -7 22 -8 9 -1 13 0 10 4 -4 3 -14 7 -22 8 -9 1
-13 0 -10 -4z"/>
<path d="M444 1255 c-11 -29 2 -209 17 -233 35 -56 124 -65 170 -16 22 23 25
37 29 137 6 117 5 131 -11 122 -5 -4 -9 -53 -9 -110 0 -95 -2 -106 -24 -131
-31 -37 -84 -38 -121 -4 -24 22 -25 29 -25 131 0 100 -11 144 -26 104z"/>
<path d="M723 1127 c1 -81 6 -147 11 -147 4 0 8 52 7 115 -1 63 0 115 2 115 2
0 45 -52 96 -115 51 -63 96 -115 100 -115 3 0 5 64 4 142 -1 79 -6 142 -10
140 -4 -1 -8 -54 -8 -117 0 -63 -2 -115 -5 -114 -3 0 -39 43 -80 95 -41 53
-85 108 -97 122 l-23 27 3 -148z"/>
<path d="M1005 1259 c-10 -26 -1 -279 10 -279 14 0 19 270 6 283 -7 7 -12 5
-16 -4z"/>
<path d="M1060 1262 c0 -4 4 -12 8 -17 5 -6 33 -69 62 -142 34 -84 58 -129 65
-126 11 4 125 266 125 286 0 5 -5 7 -11 5 -6 -2 -34 -63 -63 -135 l-53 -132
-38 97 c-48 121 -73 172 -85 172 -6 0 -10 -4 -10 -8z"/>
<path d="M1933 1262 c-37 -11 -63 -40 -63 -70 0 -38 24 -58 85 -72 107 -25
132 -48 102 -94 -27 -41 -114 -44 -156 -5 -11 11 -25 19 -31 19 -20 0 -10 -19
22 -41 70 -50 189 -21 196 49 4 44 -22 66 -104 86 -38 10 -74 22 -81 28 -19
16 -16 42 8 64 28 26 110 25 139 -1 21 -19 38 -15 25 5 -18 30 -92 46 -142 32z"/>
<path d="M2135 1258 c-10 -25 0 -278 10 -278 14 0 19 277 5 285 -6 3 -12 0
-15 -7z"/>
<path d="M2210 1123 l0 -143 73 0 c83 0 113 12 144 59 40 59 28 147 -26 195
-17 15 -42 21 -106 25 l-85 6 0 -142z m160 102 c35 -18 60 -62 60 -105 0 -76
-53 -120 -145 -120 l-55 0 0 120 0 120 55 0 c31 0 69 -7 85 -15z"/>
<path d="M2790 1123 l0 -143 70 0 c83 0 122 17 150 63 39 63 17 166 -42 199
-13 7 -58 15 -101 18 l-77 5 0 -142z m154 107 c33 -12 66 -66 66 -108 0 -78
-52 -122 -145 -122 l-55 0 0 120 0 120 54 0 c30 0 66 -4 80 -10z"/>
<path d="M3190 1268 c0 -2 -2 -67 -3 -146 l-2 -142 93 0 c54 0 92 4 92 10 0 6
-33 10 -80 10 l-80 0 0 135 c0 83 -4 135 -10 135 -5 0 -10 -1 -10 -2z"/>
<path d="M3513 1262 c-10 -6 -133 -272 -133 -286 0 -3 6 -3 13 0 7 2 19 20 26
39 l12 35 84 0 84 0 17 -32 c16 -31 35 -51 41 -44 3 3 -124 286 -130 292 -1 2
-8 0 -14 -4z m44 -109 c18 -42 33 -78 33 -80 0 -2 -33 -3 -74 -3 l-74 0 37 84
c20 46 38 82 40 80 2 -2 19 -38 38 -81z"/>
<path d="M3690 1125 c0 -90 4 -145 10 -145 6 0 10 55 10 145 0 90 -4 145 -10
145 -6 0 -10 -55 -10 -145z"/>
<path d="M3832 1250 c-33 -15 -47 -29 -62 -62 -24 -54 -25 -82 -1 -135 28 -61
100 -92 170 -73 38 10 69 35 58 46 -3 3 -16 -1 -29 -9 -22 -15 -61 -22 -104
-19 -31 3 -71 44 -82 85 -31 112 68 199 170 148 23 -11 44 -19 46 -16 15 15
-57 55 -100 55 -13 0 -42 -9 -66 -20z"/>
<path d="M4126 1237 c-8 -18 -37 -83 -65 -146 -28 -62 -51 -115 -51 -117 0 -2
7 -1 15 2 8 3 19 21 25 40 l12 34 88 0 88 0 12 -34 c6 -19 18 -37 27 -40 18
-7 21 -15 -54 154 -32 71 -64 132 -70 135 -8 2 -19 -9 -27 -28z m77 -114 l25
-53 -78 0 -78 0 20 42 c11 23 30 63 40 88 l20 45 13 -35 c7 -19 24 -59 38 -87z"/>
<path d="M1360 1120 l0 -140 100 0 c60 0 100 4 100 10 0 6 -37 10 -90 10 l-90
0 0 55 0 55 85 0 c50 0 85 4 85 10 0 6 -35 10 -85 10 l-85 0 0 55 0 55 90 0
c53 0 90 4 90 10 0 6 -40 10 -100 10 l-100 0 0 -140z"/>
<path d="M1602 1118 c2 -89 7 -142 13 -141 6 2 11 27 13 57 l3 53 34 -1 c27
-2 47 -15 95 -60 76 -73 93 -65 20 9 -51 51 -53 55 -29 55 65 0 96 107 43 149
-22 18 -41 21 -111 21 l-84 0 3 -142z m178 102 c24 -24 26 -57 4 -88 -13 -19
-24 -22 -87 -22 l-72 0 3 65 4 65 64 0 c51 0 68 -4 84 -20z"/>
<path d="M2535 1124 c-33 -75 -62 -141 -63 -145 -2 -5 3 -6 12 -3 8 3 20 21
26 40 l12 34 88 0 88 0 12 -34 c6 -19 18 -37 26 -40 9 -3 14 -2 12 3 -1 5 -30
70 -63 145 -39 89 -65 136 -75 136 -10 0 -36 -48 -75 -136z m139 -21 l17 -33
-80 0 -79 0 20 42 c11 23 29 63 40 88 l20 45 22 -55 c13 -30 30 -70 40 -87z"/>
<path d="M495 1071 c-6 -11 13 -26 22 -17 4 3 1 6 -6 6 -7 0 -9 5 -6 10 3 6 4
10 1 10 -3 0 -7 -4 -11 -9z"/>
<path d="M3943 1067 c0 -8 6 -14 14 -14 9 0 10 4 2 14 -6 7 -12 13 -14 13 -1
0 -2 -6 -2 -13z"/>
<path d="M4350 1075 c0 -2 10 -25 22 -50 l22 -45 583 0 583 0 0 50 0 50 -605
0 c-333 0 -605 -2 -605 -5z m1187 -40 c0 -8 -5 -15 -11 -15 -6 0 -4 -5 4 -10
10 -6 -182 -10 -552 -10 -551 0 -568 1 -578 19 -5 11 -10 22 -10 25 0 3 258 6
573 6 503 0 574 -2 574 -15z"/>
<path d="M816 1051 c-3 -4 4 -17 17 -27 22 -19 22 -19 4 2 -9 11 -14 24 -10
27 3 4 4 7 0 7 -3 0 -8 -4 -11 -9z"/>
<path d="M5449 898 c-5 -18 -6 -38 -1 -34 7 8 12 36 6 36 -2 0 -4 -1 -5 -2z"/>
<path d="M5486 855 c-21 -32 -20 -35 7 -34 12 0 32 13 45 30 l24 29 -30 0
c-21 0 -35 -8 -46 -25z"/>
<path d="M445 655 l0 -145 108 0 107 0 0 25 c0 25 -1 25 -80 25 l-80 0 0 35 0
35 79 0 c78 0 78 0 73 25 -4 24 -7 25 -78 25 l-74 0 0 33 0 32 80 -3 80 -4 0
31 0 31 -107 0 -108 0 0 -145z m37 93 c-7 -7 -12 -8 -12 -2 0 14 12 26 19 19
2 -3 -1 -11 -7 -17z m11 -104 c-9 -23 -23 -16 -23 12 0 22 2 24 14 14 8 -6 12
-18 9 -26z m11 -99 c11 -8 15 -15 9 -15 -19 0 -43 12 -43 21 0 13 12 11 34 -6z"/>
<path d="M698 655 l-3 -145 103 0 102 0 0 25 c0 24 -2 25 -75 25 l-75 0 0 120
0 120 -24 0 -25 0 -3 -145z"/>
<path d="M994 790 c-55 -22 -93 -104 -80 -175 25 -132 211 -152 275 -28 18 35
13 114 -9 151 -32 52 -123 78 -186 52z m124 -60 c27 -25 36 -61 28 -102 -8
-42 -32 -66 -71 -74 -69 -13 -126 53 -110 126 14 64 106 94 153 50z m22 -174
c0 -2 -7 -7 -16 -10 -8 -3 -12 -2 -9 4 6 10 25 14 25 6z"/>
<path d="M1206 788 c4 -7 29 -45 56 -85 44 -66 48 -77 48 -133 l0 -60 31 0 31
0 -4 58 c-3 54 0 63 40 125 24 36 50 71 58 78 23 19 16 29 -18 29 -29 0 -37
-7 -71 -62 l-38 -61 -37 61 c-33 55 -40 62 -70 62 -24 0 -31 -4 -26 -12z m144
-138 c0 -11 -4 -20 -9 -20 -5 0 -7 9 -4 20 3 11 7 20 9 20 2 0 4 -9 4 -20z"/>
<path d="M1615 663 c-33 -75 -61 -140 -63 -145 -2 -4 10 -8 26 -8 23 0 32 6
41 28 11 26 13 27 88 25 74 -2 78 -3 86 -27 7 -20 15 -26 39 -26 16 0 28 4 26
9 -1 5 -30 70 -63 145 -58 131 -61 136 -90 135 -29 0 -32 -5 -90 -136z m109
95 c-3 -4 0 -8 5 -8 6 0 11 -5 11 -12 0 -9 -3 -9 -12 0 -26 26 -27 9 -2 -45
14 -32 28 -64 31 -70 4 -10 -10 -13 -51 -13 l-56 0 25 57 c14 31 23 63 20 71
-7 18 0 29 19 29 8 0 13 -4 10 -9z m-81 -162 c7 4 8 3 4 -1 -14 -16 -35 -13
-32 4 5 26 7 27 12 8 3 -10 10 -14 16 -11z m161 -25 c-7 -9 -35 30 -29 40 5 7
12 2 19 -13 7 -12 11 -25 10 -27z"/>
<path d="M1890 655 l0 -145 100 0 100 0 0 25 c0 24 -2 25 -75 25 l-75 0 0 120
0 120 -25 0 -25 0 0 -145z m48 -113 c2 -7 -2 -10 -12 -6 -9 3 -16 11 -16 16 0
13 23 5 28 -10z"/>
<path d="M2120 655 l0 -145 30 0 c30 0 30 0 30 56 l0 56 70 -4 70 -3 0 28 0
28 -72 -2 -71 -2 0 39 0 39 76 -4 77 -3 0 31 0 31 -105 0 -105 0 0 -145z m50
105 c0 -5 -5 -10 -11 -10 -5 0 -7 5 -4 10 3 6 8 10 11 10 2 0 4 -4 4 -10z m7
-117 c2 -6 -3 -13 -12 -16 -10 -5 -15 0 -15 14 0 21 21 22 27 2z"/>
<path d="M2453 783 c-4 -10 -32 -75 -64 -145 l-57 -128 29 0 c22 0 32 7 41 25
6 14 17 25 25 26 116 5 136 1 150 -25 10 -19 22 -26 42 -26 l29 0 -66 145
c-62 138 -67 145 -94 145 -18 0 -31 -6 -35 -17z m50 -29 c-4 -10 -9 -12 -15
-6 -12 12 -1 35 12 27 5 -3 6 -13 3 -21z m9 -67 c34 -84 36 -78 -21 -76 -28 1
-51 5 -51 8 0 11 45 111 50 111 3 0 13 -19 22 -43z m38 -12 c0 -5 -5 -3 -10 5
-5 8 -10 20 -10 25 0 6 5 3 10 -5 5 -8 10 -19 10 -25z m-133 -65 c-1 -11 -7
-22 -14 -24 -9 -4 -10 0 -1 19 14 30 17 31 15 5z m163 -15 c7 -9 10 -18 6 -22
-3 -3 -6 -1 -6 5 0 7 -5 11 -11 10 -6 -2 -14 3 -16 10 -6 17 12 15 27 -3z
m-197 -50 c-3 -9 -8 -14 -10 -11 -3 3 -2 9 2 15 9 16 15 13 8 -4z"/>
<path d="M2670 655 l0 -145 25 0 c23 0 25 3 25 50 0 46 2 50 24 50 16 0 39
-16 69 -50 36 -40 51 -50 77 -50 l32 0 -41 49 c-44 53 -48 61 -28 61 42 0 68
97 37 135 -25 30 -75 45 -150 45 l-70 0 0 -145z m32 60 c-3 -42 -1 -60 11 -73
15 -16 15 -19 -3 -30 -19 -12 -20 -9 -20 73 0 47 4 85 8 85 5 0 7 -25 4 -55z
m129 25 c12 -7 19 -21 19 -40 0 -36 -23 -50 -84 -50 l-46 0 0 50 0 50 46 0
c25 0 54 -5 65 -10z m-6 -117 c-14 -14 -14 -17 2 -37 15 -17 13 -17 -9 3 -29
26 -28 46 2 48 18 2 19 0 5 -14z"/>
<path d="M2993 781 c-48 -30 -66 -73 -61 -143 4 -49 9 -64 35 -89 84 -84 231
-39 248 76 9 55 -7 104 -45 140 -40 39 -128 46 -177 16z m7 -35 c0 -2 -8 -10
-17 -17 -16 -13 -17 -12 -4 4 13 16 21 21 21 13z m137 -18 c67 -74 12 -191
-82 -174 -39 8 -63 32 -71 74 -14 71 24 122 91 122 30 0 47 -6 62 -22z m-138
-172 c-3 -3 -11 5 -18 17 -13 21 -12 21 5 5 10 -10 16 -20 13 -22z"/>
<path d="M3330 655 l0 -145 70 0 c123 0 171 35 178 129 8 110 -48 160 -180
161 l-68 0 0 -145z m50 111 c0 -2 -7 -9 -15 -16 -12 -10 -15 -10 -15 4 0 9 7
16 15 16 8 0 15 -2 15 -4z m127 -50 c38 -45 26 -123 -24 -145 -13 -6 -42 -11
-63 -11 l-40 0 0 96 0 97 52 -5 c40 -4 57 -11 75 -32z m38 6 c-3 -3 -11 0 -18
7 -9 10 -8 11 6 5 10 -3 15 -9 12 -12z m-21 -157 c-4 -8 -11 -15 -16 -15 -6 0
-5 6 2 15 7 8 14 15 16 15 2 0 1 -7 -2 -15z m-148 -23 c1 -7 0 -8 -3 -2 -2 5
-9 8 -14 4 -5 -3 -9 0 -9 6 0 15 23 7 26 -8z"/>
<path d="M3620 798 c0 -2 -2 -67 -3 -146 l-2 -142 108 0 107 0 0 28 0 27 -80
-3 -80 -4 0 36 0 36 78 0 c76 0 77 0 77 25 0 25 -1 25 -77 25 l-78 0 0 33 0
32 80 -3 80 -4 0 31 0 31 -105 0 c-58 0 -105 -1 -105 -2z m37 -45 c-16 -16
-17 -16 -17 0 0 10 5 15 10 12 6 -3 10 -1 10 6 0 7 3 9 7 5 4 -3 -1 -14 -10
-23z m9 -94 c8 -13 -13 -36 -23 -24 -5 4 -2 10 6 13 11 4 11 6 0 13 -9 6 -10
9 -2 9 6 0 15 -5 19 -11z m4 -114 c7 -8 8 -15 2 -15 -5 0 -15 7 -22 15 -7 8
-8 15 -2 15 5 0 15 -7 22 -15z"/>
<path d="M3948 655 l-3 -145 28 0 27 0 0 106 c0 90 -2 105 -15 100 -11 -4 -15
1 -15 19 0 43 18 41 55 -5 l20 -25 -22 19 c-13 11 -23 15 -23 9 0 -10 43 -77
79 -122 l18 -24 42 56 c24 31 40 60 37 65 -3 5 1 9 9 9 12 0 14 -19 12 -104
l-3 -103 28 0 28 0 0 145 0 145 -30 0 c-26 0 -37 -10 -77 -65 l-46 -64 -45 64
c-37 54 -49 65 -73 65 l-28 0 -3 -145z m267 108 c-1 -10 2 -23 7 -30 7 -8 3
-10 -11 -6 -12 3 -18 9 -15 14 3 5 0 9 -5 9 -6 0 -11 -5 -11 -12 0 -6 -3 -8
-7 -4 -4 4 3 16 17 26 31 24 29 24 25 3z m10 -62 c3 -5 2 -12 -3 -15 -5 -3 -9
1 -9 9 0 17 3 19 12 6z m-120 -52 c11 -17 -13 -17 -30 1 -16 18 -16 18 4 13
12 -3 24 -9 26 -14z"/>
<path d="M4335 664 c-33 -74 -61 -140 -63 -145 -2 -5 10 -9 26 -9 24 0 32 6
39 26 8 25 12 26 86 27 75 2 77 1 88 -25 9 -22 18 -28 41 -28 16 0 28 4 26 8
-1 4 -30 69 -63 145 -58 131 -61 136 -90 137 -29 0 -32 -5 -90 -136z m115 95
c0 -4 -6 -9 -14 -11 -12 -2 -9 -17 14 -70 l29 -68 -54 0 c-30 0 -55 2 -55 4 0
2 12 29 26 60 19 42 23 60 15 70 -6 7 -9 15 -6 17 7 8 45 5 45 -2z m-109 -183
c-18 -17 -21 -18 -15 -3 3 9 10 17 15 17 5 0 8 3 8 8 -3 16 3 26 8 13 3 -7 -4
-23 -16 -35z m189 -9 c0 -5 -7 -1 -16 7 -8 9 -20 13 -26 10 -5 -4 -4 4 2 16
l13 23 13 -24 c7 -13 13 -28 14 -32z"/>
<path d="M4608 655 l-3 -145 27 0 27 0 3 95 3 94 73 -94 c40 -52 79 -95 87
-95 13 0 15 23 15 145 l0 145 -25 0 c-25 0 -25 -1 -25 -91 l0 -92 -71 92
c-101 131 -107 128 -111 -54z m63 70 c7 -13 3 -11 -10 5 -19 23 -20 23 -15 4
3 -12 1 -25 -5 -28 -7 -5 -11 3 -11 22 0 51 14 50 41 -3z m144 -163 c-6 -14
-9 -13 -17 8 -6 17 -5 32 4 49 l13 25 3 -33 c2 -18 0 -40 -3 -49z m-38 32 c2
-13 1 -15 -4 -4 -3 8 -11 19 -17 23 -7 6 -6 7 4 4 8 -2 16 -12 17 -23z"/>
<path d="M4964 743 c-43 -96 -63 -141 -84 -188 l-19 -45 30 0 c24 0 32 6 40
28 9 26 11 27 87 26 73 -2 77 -3 86 -28 8 -20 17 -26 39 -26 22 0 28 4 23 16
-3 8 -31 73 -63 145 -53 122 -58 129 -85 129 -25 0 -31 -7 -54 -57z m82 -11
c-6 -5 -36 23 -36 34 0 4 9 -1 20 -11 11 -10 18 -20 16 -23z m23 -114 c1 -5
-21 -8 -49 -8 -27 0 -50 3 -50 6 0 4 10 33 23 65 l22 59 27 -58 c14 -31 27
-60 27 -64z m-114 -16 c2 -15 0 -19 -11 -15 -8 3 -14 0 -14 -6 0 -6 -4 -11 -9
-11 -5 0 -3 14 6 31 16 33 21 33 28 1z m150 11 c19 -44 13 -53 -18 -29 -12 9
-14 16 -7 21 5 3 8 11 5 16 -4 5 -2 9 3 9 6 0 13 -8 17 -17z"/>
<path d="M5190 655 l0 -145 85 0 c89 0 137 15 149 45 11 31 6 65 -13 84 -17
17 -18 21 -5 32 16 13 19 62 4 89 -14 25 -70 40 -152 40 l-68 0 0 -145z m50
111 c0 -3 -4 -8 -10 -11 -5 -3 -10 -1 -10 4 0 6 5 11 10 11 6 0 10 -2 10 -4z
m116 -30 c15 -12 17 -18 8 -33 -8 -13 -26 -19 -68 -21 l-56 -3 0 36 0 35 48 0
c27 0 57 -6 68 -14z m-130 -55 c-4 -5 -1 -11 6 -13 6 -2 8 -10 4 -16 -12 -19
-21 -14 -24 13 -1 14 3 25 9 25 5 0 8 -4 5 -9z m149 -21 c-3 -5 -12 -10 -18
-10 -7 0 -6 4 3 10 19 12 23 12 15 0z m-5 -46 c11 -11 12 -19 4 -32 -8 -12
-27 -18 -73 -20 l-61 -3 0 39 0 39 58 -5 c31 -2 64 -11 72 -18z m-135 -65 c11
-16 1 -19 -13 -3 -7 8 -8 14 -3 14 5 0 13 -5 16 -11z"/>
<path d="M5468 655 l-3 -145 28 0 27 0 0 145 0 145 -24 0 -25 0 -3 -145z"/>
<path d="M4706 778 c3 -5 10 -6 15 -3 13 9 11 12 -6 12 -8 0 -12 -4 -9 -9z"/>
<path d="M656 463 c-6 -14 -5 -15 5 -6 7 7 10 15 7 18 -3 3 -9 -2 -12 -12z"/>
</g>
</svg>
